<svg width="808" height="518" viewBox="0 0 808 518" fill="none" xmlns="http://www.w3.org/2000/svg">
<path d="M806.719 0H0V34.2724H806.719V0Z" fill="#878045"/>
<path d="M25.4685 23.8739C28.9766 23.8739 31.8206 21.03 31.8206 17.5218C31.8206 14.0136 28.9766 11.1697 25.4685 11.1697C21.9603 11.1697 19.1163 14.0136 19.1163 17.5218C19.1163 21.03 21.9603 23.8739 25.4685 23.8739Z" fill="white"/>
<path d="M49.5795 23.8739C53.0877 23.8739 55.9317 21.03 55.9317 17.5218C55.9317 14.0136 53.0877 11.1697 49.5795 11.1697C46.0714 11.1697 43.2274 14.0136 43.2274 17.5218C43.2274 21.03 46.0714 23.8739 49.5795 23.8739Z" fill="white"/>
<path d="M73.6906 23.8739C77.1988 23.8739 80.0427 21.03 80.0427 17.5218C80.0427 14.0136 77.1988 11.1697 73.6906 11.1697C70.1824 11.1697 67.3385 14.0136 67.3385 17.5218C67.3385 21.03 70.1824 23.8739 73.6906 23.8739Z" fill="white"/>
<path d="M258.022 176.152C258.022 176.152 260.938 216.39 259.609 218.756C258.28 221.122 282.958 263.626 282.958 263.626L322.411 226.65C322.411 226.65 320.022 175.502 322.564 173.195C325.105 170.887 258.022 176.152 258.022 176.152Z" fill="#A0616A"/>
<path d="M291.573 206.88C317.043 206.88 337.691 186.232 337.691 160.762C337.691 135.291 317.043 114.643 291.573 114.643C266.102 114.643 245.454 135.291 245.454 160.762C245.454 186.232 266.102 206.88 291.573 206.88Z" fill="#A0616A"/>
<path d="M288 234.708L283.268 232.05L259.92 211.02C259.92 211.02 257.595 210.153 257.243 217.426L256.892 224.7L241.818 234.907L241.126 400.123L345.379 405.16L349.766 238.907L326.224 223.189L321.91 213.993L295.391 232.635L288 234.708Z" fill="white"/>
<path d="M391.73 250.654L380.201 418.83H206.102C183.917 392.566 166.197 257.426 185.106 253.421C191.283 251.285 233.167 238.129 233.167 238.129C233.167 238.129 245.679 230.228 249.672 223.141C252.125 218.922 255.129 215.048 258.605 211.623L258.629 211.599L258.641 211.574C258.738 211.477 258.823 211.38 258.92 211.295C258.939 211.262 258.969 211.236 259.005 211.222C259.127 211.089 259.248 210.968 259.382 210.846V211.028L258.496 241.782L291.847 356.4C291.847 356.4 301.24 287.598 310.78 266.189C316.156 254.125 318.972 239.234 320.404 228.529C321.509 220.24 321.788 214.475 321.788 214.475C321.788 214.475 321.836 214.536 321.921 214.645V214.657C321.921 214.659 321.921 214.66 321.922 214.662C321.923 214.663 321.923 214.665 321.925 214.666C321.926 214.667 321.927 214.668 321.929 214.668C321.93 214.669 321.932 214.669 321.933 214.669C322.079 214.851 322.31 215.155 322.649 215.567L322.661 215.58C325.453 219.075 334.41 229.658 340.478 229.949C347.748 230.301 367.712 244.634 367.712 244.634C377.47 243.882 391.73 250.654 391.73 250.654Z" fill="#2F2E41"/>
<path d="M335.698 379.176C335.698 379.176 348.834 333.638 367.996 339.424C387.157 345.21 366.122 378.215 366.122 378.215L335.698 379.176Z" fill="#A0616A"/>
<path d="M259.376 416.166C259.376 416.166 216.547 395.871 225.342 377.89C234.137 359.91 263.326 385.985 263.326 385.985L259.376 416.166Z" fill="#A0616A"/>
<path d="M276.53 418.83H266.251C262.119 417.806 257.928 417.036 253.702 416.524C252.731 416.476 252.415 414.958 252.536 412.555C252.875 408.582 253.529 404.641 254.49 400.771C255.959 394.217 257.925 387.129 259.187 382.615V382.603C259.928 379.969 260.413 378.221 260.425 377.966C260.462 377.165 267.185 378.27 271.821 379.119C274.261 379.568 276.118 379.945 276.118 379.945L276.348 401.827L276.53 418.83Z" fill="white"/>
<path d="M413.734 398.744C410.773 407.13 408.636 413.769 406.889 418.83H272.258C271.809 414.194 271.239 407.846 270.875 401.56C270.28 391.498 270.183 381.595 271.821 379.119C271.897 378.979 272.001 378.856 272.126 378.758C272.251 378.66 272.396 378.589 272.55 378.549C275.693 377.93 311.204 377.372 336.351 377.044C339.847 377.007 343.136 376.971 346.121 376.935C355.187 376.825 361.328 376.765 361.328 376.765C361.328 376.765 361.814 360.162 363.294 338.996C365.904 301.785 371.608 250.46 383.235 250.241L391.73 250.654C391.73 250.654 396.573 250.885 398.648 258.276C400.723 265.667 422.181 374.847 413.734 398.744Z" fill="#2F2E41"/>
<path d="M253.802 117.555L245.215 113.954C245.215 113.954 264.374 96.5616 289.724 99.3792L282.918 91.8824C282.918 91.8824 300.706 86.3703 315.791 103.824C323.721 113 332.889 123.777 338.353 135.683L347.714 136.135L343.43 143.76L356.726 152.234L342.759 150.152C343.763 156.962 342.968 163.916 340.454 170.324L336.853 178.911C336.853 178.911 325.368 152.87 325.522 149.691L325.138 157.637C325.138 157.637 316.743 150.064 316.973 145.296L311.937 150.628L309.976 141.772L280.154 149.092L285.267 142.172L266.876 143.672L274.45 135.277C274.45 135.277 253.291 144.609 252.074 153.311C250.858 162.013 239.991 172.638 239.991 172.638L235.607 164.462C235.607 164.462 230.183 128.36 253.802 117.555Z" fill="#2F2E41"/>
<path d="M579.807 119.509C574.058 109.796 562.686 109.343 562.686 109.343C562.686 109.343 551.604 107.926 544.495 122.719C537.869 136.507 528.724 149.82 543.023 153.047L545.605 145.009L547.205 153.646C549.241 153.792 551.283 153.827 553.323 153.75C568.636 153.256 583.219 153.895 582.749 148.4C582.125 141.095 585.338 128.854 579.807 119.509Z" fill="#2F2E41"/>
<path d="M558.601 152.601C558.719 153.694 558.538 154.799 558.077 155.797C557 157.678 554.371 157.96 552.789 159.443C551.126 161.003 550.938 163.534 550.859 165.812C550.615 168.191 550.859 170.593 551.575 172.874C552.107 174.097 552.781 175.253 553.581 176.32C554.546 177.712 555.521 179.098 556.504 180.477C557.029 181.254 557.615 181.988 558.254 182.674C560.119 184.378 562.387 185.581 564.844 186.169C566.372 186.748 568.039 186.858 569.631 186.486C570.654 186.087 571.597 185.507 572.415 184.774C573.61 183.917 574.672 182.888 575.566 181.72C576.725 179.737 577.386 177.502 577.493 175.207C578.289 168.489 578.598 161.723 578.419 154.96C578.452 154.223 578.32 153.489 578.033 152.809C577.232 151.245 575.087 150.912 573.957 149.567C572.991 148.417 572.952 146.775 572.96 145.273L572.981 141.45C573.014 141.128 572.95 140.803 572.795 140.518C572.655 140.365 572.486 140.241 572.298 140.153C572.109 140.065 571.906 140.015 571.698 140.006C569.322 139.612 566.912 139.451 564.504 139.525C562.552 139.585 558.807 139.421 557.119 140.509C555.586 141.496 557.505 144.221 557.86 145.753C558.337 148.005 558.585 150.299 558.601 152.601Z" fill="#FFB8B8"/>
<path d="M563.081 146.035C571.617 146.035 578.537 139.116 578.537 130.58C578.537 122.044 571.617 115.125 563.081 115.125C554.546 115.125 547.626 122.044 547.626 130.58C547.626 139.116 554.546 146.035 563.081 146.035Z" fill="#FFB8B8"/>
<path d="M554.265 159.01C552.595 158.041 550.327 158.826 549.111 160.326C547.994 161.917 547.401 163.819 547.416 165.764C547.435 167.695 547.297 169.624 547.002 171.532C546.074 175.702 542.63 179.13 542.374 183.395C542.122 187.59 544.998 191.244 546.414 195.202C547.271 197.668 547.63 200.28 547.468 202.887C547.383 203.299 547.382 203.725 547.468 204.137C547.553 204.55 547.721 204.94 547.963 205.285C548.272 205.555 548.638 205.752 549.033 205.861C555.862 208.264 563.239 208.472 570.476 208.655L582.429 208.958C583.152 209.044 583.884 208.922 584.54 208.605C585.612 207.947 585.756 206.473 585.774 205.215C585.931 194.382 585.47 183.551 585.009 172.727C584.954 168.798 584.563 164.882 583.841 161.02C583.798 160.521 583.645 160.038 583.392 159.607C583.139 159.175 582.793 158.805 582.379 158.524C581.978 158.389 581.554 158.333 581.131 158.361C580.708 158.39 580.295 158.501 579.916 158.689C576.211 160.067 564.435 165.347 563.275 163.468C561.928 161.287 553.609 160.643 554.265 159.01Z" fill="white"/>
<path d="M554.867 159.278C554.563 159.493 554.263 159.721 553.976 159.962C552.901 160.85 551.936 161.865 551.105 162.985C549.729 164.861 548.634 166.928 547.854 169.12C546.58 173.009 545.711 177.019 545.261 181.086C545.007 182.576 544.87 184.084 544.852 185.595C544.941 191.152 548.226 196.299 548.23 201.86C548.23 202.071 548.225 202.278 548.213 202.489C548.174 203.399 548.066 204.305 547.892 205.2C547.651 206.504 547.305 207.792 546.963 209.076C546.236 212.344 545.068 215.499 543.492 218.453C543.323 218.741 543.142 219.023 542.956 219.298H531.134C531.226 219.015 531.324 218.736 531.416 218.453C533.43 212.487 535.443 206.523 537.454 200.559C538.071 198.735 538.687 196.903 539.122 195.028C539.62 192.713 539.96 190.367 540.14 188.006C540.604 183.113 540.91 178.209 541.056 173.296C541.017 171.526 541.24 169.76 541.719 168.056C542.253 166.693 542.96 165.405 543.822 164.222C545.042 162.385 546.262 160.548 547.482 158.712C548.089 157.642 548.922 156.717 549.923 156.001C550.797 155.465 551.836 155.271 552.756 154.819C553.335 154.49 553.891 154.122 554.42 153.717C555.796 152.741 557.413 151.715 558.6 152.712C558.792 152.872 558.958 153.061 559.09 153.273C559.157 153.378 559.218 153.486 559.271 153.599C560.411 156.064 556.4 158.192 554.867 159.278Z" fill="#2F2E41"/>
<path d="M593.814 219.298H539.059C539.354 219.028 539.646 218.745 539.929 218.454C539.971 218.411 540.009 218.369 540.051 218.327C542.145 216.152 542.623 213.48 543.674 210.651C544.463 208.518 545.253 206.388 546.043 204.258C546.168 203.844 546.373 203.458 546.646 203.122C546.875 202.886 547.162 202.714 547.478 202.624C547.717 202.551 547.964 202.505 548.213 202.489C548.569 202.466 548.925 202.466 549.281 202.489C559.106 202.996 568.925 203.613 578.736 204.342C580.003 204.44 581.269 204.537 582.536 204.634C583.571 205.402 584.592 206.217 585.568 207.079C588.803 209.767 591.369 213.171 593.062 217.022C593.252 217.491 593.425 217.968 593.569 218.453C593.662 218.732 593.742 219.015 593.814 219.298Z" fill="#2F2E41"/>
<path d="M577.265 118.572L566.03 112.687L550.514 115.094L547.304 129.273L555.295 128.966L557.527 123.757V128.879L561.215 128.738L563.355 120.445L564.692 129.273L577.8 129.005L577.265 118.572Z" fill="#2F2E41"/>
<path d="M593.814 219.298H581.451C581.362 219.019 581.278 218.736 581.198 218.453C580.324 215.313 579.684 212.112 579.281 208.877C579.15 207.952 579.036 207.024 578.93 206.099C578.863 205.512 578.799 204.929 578.736 204.342C578.027 197.823 577.482 191.241 575.489 185C575.248 184.244 574.987 183.493 574.733 182.741C574.265 181.447 573.898 180.119 573.635 178.768C573.095 175.677 573.5 172.477 572.943 169.39C572.63 167.667 572.01 166.151 571.634 164.572C571.395 163.619 571.301 162.636 571.355 161.655C572.265 160.796 573.41 160.229 574.644 160.025C575.078 160.02 575.494 159.853 575.81 159.556C575.962 159.296 576.03 158.995 576.004 158.695C576.034 156.703 575.919 154.712 575.662 152.737C575.578 152.045 575.472 151.352 575.345 150.664C575.341 150.63 575.333 150.601 575.329 150.567C576.389 150.192 577.516 150.039 578.639 150.119C579.859 150.124 581.075 150.124 582.291 150.128C584.542 150.136 586.792 150.143 589.043 150.149C591.137 150.007 593.238 150.311 595.207 151.04C597.157 152.022 598.723 153.627 599.658 155.6C600.579 157.56 601.254 159.626 601.667 161.752C601.802 162.335 601.873 162.931 601.879 163.529C601.971 168.284 598.425 173.072 598.07 177.932C597.956 179.507 598.087 181.094 597.943 182.669C597.8 184.248 597.377 185.794 597.301 187.373C597.297 187.453 597.293 187.538 597.293 187.618C597.339 189.68 597.761 191.716 598.539 193.626C599.611 196.637 600.916 199.554 602.263 202.455C603.563 205.263 604.897 208.058 606.097 210.904C606.72 212.225 607.14 213.633 607.342 215.08C607.475 216.243 607.253 217.419 606.705 218.453C606.564 218.709 606.395 218.948 606.202 219.167L606.194 219.175C606.156 219.218 606.118 219.26 606.08 219.298H593.814V219.298Z" fill="#2F2E41"/>
<path d="M605.59 214.966C605.538 215.528 605.385 216.075 605.138 216.583C605.117 216.633 605.096 216.68 605.075 216.731C604.83 217.309 604.581 217.879 604.323 218.453C604.197 218.732 604.07 219.015 603.939 219.298H596.947C597.2 219.033 597.434 218.751 597.648 218.453C598.72 216.963 599.341 215.151 600.435 213.543C600.583 213.323 600.754 213.119 600.945 212.935C602.698 211.237 605.7 211.584 605.59 214.966Z" fill="#FFB8B8"/>
<path d="M610.142 219.298C610.231 219.02 610.306 218.739 610.365 218.453C610.416 218.229 610.458 218.01 610.492 217.786C610.716 216.313 610.712 214.805 611.062 213.357C611.556 211.284 613.038 208.831 611.818 207.087C612.767 206.892 613.662 206.491 614.44 205.913C614.821 205.614 615.095 205.201 615.223 204.734C615.351 204.267 615.325 203.771 615.149 203.32C614.714 202.472 613.536 201.91 613.697 200.969C613.777 200.67 613.918 200.391 614.111 200.15C614.751 199.139 615.082 197.964 615.063 196.769C615.045 195.573 614.677 194.409 614.005 193.419C613.621 192.87 613.148 192.389 612.797 191.815C612.414 191.112 612.121 190.365 611.924 189.589C610.704 185.661 608.907 181.935 606.591 178.535C606.077 177.881 605.679 177.145 605.413 176.357C605.257 175.503 605.226 174.631 605.32 173.768C605.284 170.335 604.231 166.989 602.292 164.154C602.157 163.943 602.018 163.736 601.879 163.529C600.031 160.965 597.969 158.562 595.714 156.347C594.829 156.603 594.062 157.16 593.544 157.922C593.314 158.417 593.172 158.949 593.126 159.493C592.526 163.673 592.007 167.878 591.601 172.079C591.324 174.196 591.267 176.336 591.433 178.464C591.606 180.606 592.444 182.64 593.831 184.282C594.73 185.27 595.87 186.005 596.846 186.917C597.002 187.065 597.154 187.217 597.302 187.373C598.005 188.122 598.629 188.941 599.164 189.817C601.504 193.598 602.588 198.021 602.263 202.455C602.204 203.254 602.098 204.049 601.946 204.836C601.761 205.963 601.381 207.049 600.823 208.045C600.38 208.776 599.797 209.413 599.396 210.169C599.17 210.533 599.035 210.945 599.001 211.372C598.967 211.799 599.036 212.228 599.202 212.622C599.797 212.622 600.387 212.728 600.945 212.935C602.26 213.442 603.403 214.313 604.239 215.447C604.547 215.855 604.827 216.284 605.075 216.731C605.388 217.287 605.667 217.863 605.911 218.453C606.012 218.686 606.109 218.926 606.202 219.167C606.223 219.209 606.24 219.253 606.253 219.298L610.142 219.298Z" fill="#2F2E41"/>
<path d="M677.529 220.874H458.865V97H677.529V220.874ZM460.865 218.874H675.529V99H460.865V218.874Z" fill="#E6E6E6"/>
<path d="M403.373 482.831C415.798 482.831 425.871 472.759 425.871 460.334C425.871 447.909 415.798 437.836 403.373 437.836C390.948 437.836 380.876 447.909 380.876 460.334C380.876 472.759 390.948 482.831 403.373 482.831Z" fill="#E6E6E6"/>
<path d="M403.373 477.582C412.899 477.582 420.622 469.86 420.622 460.334C420.622 450.808 412.899 443.085 403.373 443.085C393.847 443.085 386.125 450.808 386.125 460.334C386.125 469.86 393.847 477.582 403.373 477.582Z" fill="white"/>
<path d="M412.014 469.754C411.911 469.754 411.809 469.734 411.714 469.694C411.618 469.655 411.532 469.597 411.459 469.524L394.175 452.24C394.034 452.091 393.957 451.894 393.959 451.689C393.962 451.484 394.044 451.288 394.189 451.143C394.334 450.999 394.53 450.916 394.735 450.913C394.939 450.911 395.137 450.988 395.286 451.129L412.57 468.413C412.679 468.523 412.754 468.663 412.784 468.815C412.815 468.968 412.799 469.126 412.74 469.269C412.68 469.413 412.58 469.535 412.451 469.622C412.321 469.708 412.17 469.754 412.014 469.754Z" fill="#878045"/>
<path d="M402.979 463.265L400.436 460.722C400.422 460.708 400.403 460.698 400.383 460.695C400.363 460.692 400.342 460.695 400.323 460.704C400.305 460.713 400.29 460.728 400.28 460.746C400.271 460.764 400.267 460.785 400.27 460.805C400.373 461.465 400.682 462.075 401.155 462.547C401.627 463.019 402.237 463.329 402.896 463.432C402.917 463.435 402.937 463.431 402.956 463.421C402.974 463.412 402.988 463.397 402.998 463.378C403.007 463.36 403.01 463.339 403.007 463.319C403.003 463.299 402.994 463.28 402.979 463.265Z" fill="#878045"/>
<path d="M403.765 457.388L406.312 459.934C406.326 459.948 406.345 459.958 406.366 459.961C406.386 459.965 406.407 459.962 406.425 459.953C406.444 459.943 406.459 459.929 406.469 459.91C406.478 459.892 406.482 459.871 406.479 459.851C406.376 459.19 406.066 458.579 405.594 458.107C405.121 457.634 404.51 457.324 403.849 457.221C403.829 457.218 403.808 457.222 403.79 457.231C403.771 457.24 403.756 457.256 403.747 457.274C403.738 457.292 403.734 457.313 403.738 457.334C403.741 457.354 403.75 457.373 403.765 457.388Z" fill="#878045"/>
<path d="M414.911 461.179C415.074 460.924 415.16 460.627 415.159 460.325C415.158 460.022 415.07 459.726 414.906 459.472C413.646 457.503 411.985 455.821 410.032 454.536C408.052 453.219 405.734 452.502 403.357 452.47C402.158 452.472 400.967 452.667 399.83 453.049C399.798 453.06 399.77 453.078 399.747 453.103C399.724 453.128 399.709 453.158 399.701 453.191C399.693 453.223 399.694 453.257 399.703 453.289C399.712 453.322 399.73 453.351 399.754 453.375L402.073 455.694C402.097 455.718 402.127 455.736 402.16 455.745C402.193 455.754 402.228 455.754 402.261 455.746C403.047 455.554 403.869 455.568 404.648 455.787C405.428 456.005 406.138 456.42 406.71 456.992C407.282 457.565 407.697 458.275 407.916 459.054C408.134 459.833 408.148 460.655 407.956 461.442C407.948 461.475 407.948 461.509 407.957 461.542C407.967 461.575 407.984 461.605 408.008 461.629L411.344 464.968C411.379 465.002 411.426 465.023 411.475 465.025C411.524 465.027 411.572 465.011 411.61 464.979C412.894 463.885 414.007 462.604 414.911 461.179Z" fill="#878045"/>
<path d="M403.372 465.04C402.659 465.04 401.954 464.878 401.313 464.567C400.671 464.255 400.108 463.801 399.667 463.241C399.226 462.68 398.918 462.026 398.766 461.329C398.614 460.631 398.623 459.909 398.791 459.215C398.799 459.182 398.799 459.148 398.79 459.115C398.781 459.082 398.764 459.052 398.74 459.028L395.458 455.745C395.423 455.71 395.376 455.69 395.327 455.687C395.278 455.685 395.23 455.702 395.192 455.734C393.931 456.827 392.814 458.076 391.869 459.452C391.692 459.707 391.594 460.009 391.588 460.319C391.583 460.63 391.669 460.935 391.838 461.197C393.077 463.168 394.722 464.853 396.663 466.139C398.646 467.461 400.973 468.172 403.357 468.183C404.568 468.18 405.771 467.988 406.923 467.616C406.955 467.605 406.984 467.587 407.007 467.562C407.03 467.538 407.046 467.508 407.054 467.475C407.062 467.442 407.062 467.408 407.053 467.375C407.043 467.343 407.026 467.314 407.002 467.29L404.671 464.959C404.647 464.935 404.618 464.918 404.585 464.909C404.552 464.9 404.517 464.899 404.484 464.908C404.12 464.996 403.747 465.041 403.372 465.04Z" fill="#878045"/>
<path d="M318.014 482.831C330.439 482.831 340.512 472.759 340.512 460.334C340.512 447.909 330.439 437.836 318.014 437.836C305.589 437.836 295.517 447.909 295.517 460.334C295.517 472.759 305.589 482.831 318.014 482.831Z" fill="#E6E6E6"/>
<path d="M318.014 477.582C327.54 477.582 335.263 469.86 335.263 460.334C335.263 450.808 327.54 443.085 318.014 443.085C308.488 443.085 300.766 450.808 300.766 460.334C300.766 469.86 308.488 477.582 318.014 477.582Z" fill="white"/>
<path d="M324.64 471.332C323.1 471.21 321.614 470.703 320.319 469.859C317.814 468.52 315.525 466.808 313.533 464.783C311.471 462.819 309.749 460.526 308.437 457.999C306.628 454.709 306.936 452.984 307.281 452.247C307.679 451.442 308.305 450.77 309.081 450.317C309.525 450.025 309.996 449.775 310.487 449.57C310.536 449.549 310.582 449.529 310.622 449.511C310.785 449.419 310.965 449.363 311.151 449.346C311.336 449.329 311.524 449.352 311.7 449.413C312.092 449.601 312.441 449.869 312.724 450.198C313.746 451.344 314.607 452.623 315.286 454C315.564 454.476 315.736 455.008 315.788 455.557C315.747 456.101 315.527 456.616 315.162 457.021C315.098 457.109 315.034 457.193 314.972 457.274C314.598 457.765 314.516 457.907 314.57 458.161C315.07 459.435 315.844 460.584 316.838 461.525C317.765 462.504 318.902 463.261 320.163 463.738C320.427 463.794 320.572 463.709 321.079 463.322C321.152 463.266 321.226 463.209 321.304 463.151C321.711 462.769 322.234 462.534 322.79 462.487H322.793C323.351 462.544 323.887 462.732 324.358 463.036C325.719 463.726 326.991 464.58 328.145 465.578C328.476 465.861 328.744 466.209 328.933 466.6C328.994 466.777 329.017 466.964 329 467.15C328.983 467.337 328.927 467.517 328.835 467.68C328.817 467.721 328.797 467.766 328.776 467.815C328.569 468.305 328.318 468.775 328.025 469.218C327.57 469.993 326.898 470.618 326.091 471.015C325.638 471.229 325.142 471.338 324.64 471.332Z" fill="#878045"/>
<path d="M489.394 482.831C501.819 482.831 511.892 472.759 511.892 460.334C511.892 447.909 501.819 437.836 489.394 437.836C476.969 437.836 466.896 447.909 466.896 460.334C466.896 472.759 476.969 482.831 489.394 482.831Z" fill="#E6E6E6"/>
<path d="M489.394 477.582C498.92 477.582 506.642 469.86 506.642 460.334C506.642 450.808 498.92 443.085 489.394 443.085C479.868 443.085 472.146 450.808 472.146 460.334C472.146 469.86 479.868 477.582 489.394 477.582Z" fill="white"/>
<path d="M492.537 470.547H486.252C486.148 470.547 486.046 470.527 485.95 470.488C485.854 470.449 485.768 470.391 485.694 470.318C485.621 470.245 485.563 470.158 485.523 470.063C485.484 469.967 485.463 469.865 485.463 469.761C485.463 469.658 485.484 469.555 485.523 469.46C485.563 469.364 485.621 469.278 485.694 469.205C485.768 469.132 485.854 469.074 485.95 469.035C486.046 468.995 486.148 468.975 486.252 468.976H492.537C492.64 468.975 492.742 468.995 492.838 469.035C492.934 469.074 493.021 469.132 493.094 469.205C493.167 469.278 493.225 469.364 493.265 469.46C493.305 469.555 493.325 469.658 493.325 469.761C493.325 469.865 493.305 469.967 493.265 470.063C493.225 470.158 493.167 470.245 493.094 470.318C493.021 470.391 492.934 470.449 492.838 470.488C492.742 470.527 492.64 470.547 492.537 470.547Z" fill="#878045"/>
<path d="M489.394 466.619C487.519 466.617 485.722 465.871 484.397 464.546C483.071 463.22 482.325 461.423 482.323 459.548V457.977C482.324 457.769 482.407 457.57 482.555 457.423C482.702 457.276 482.901 457.194 483.109 457.194C483.317 457.194 483.516 457.276 483.664 457.423C483.811 457.57 483.894 457.769 483.895 457.977V459.548C483.894 460.271 484.035 460.987 484.311 461.655C484.587 462.323 484.992 462.93 485.503 463.442C486.014 463.953 486.62 464.359 487.288 464.636C487.955 464.913 488.671 465.055 489.394 465.055C490.117 465.055 490.833 464.913 491.5 464.636C492.168 464.359 492.775 463.953 493.285 463.442C493.796 462.93 494.201 462.323 494.477 461.655C494.753 460.987 494.894 460.271 494.893 459.548V457.977C494.894 457.769 494.977 457.57 495.125 457.423C495.272 457.276 495.471 457.194 495.679 457.194C495.887 457.194 496.086 457.276 496.234 457.423C496.381 457.57 496.464 457.769 496.465 457.977V459.548C496.463 461.423 495.717 463.22 494.391 464.546C493.066 465.871 491.269 466.617 489.394 466.619Z" fill="#878045"/>
<path d="M489.394 470.547C489.291 470.547 489.189 470.526 489.093 470.487C488.998 470.448 488.911 470.39 488.839 470.317C488.766 470.244 488.708 470.157 488.668 470.062C488.629 469.967 488.608 469.864 488.608 469.761V465.833C488.608 465.73 488.628 465.627 488.667 465.532C488.707 465.436 488.765 465.349 488.838 465.276C488.911 465.203 488.997 465.144 489.093 465.105C489.188 465.065 489.291 465.045 489.394 465.045C489.497 465.045 489.6 465.065 489.695 465.105C489.791 465.144 489.878 465.203 489.951 465.276C490.023 465.349 490.081 465.436 490.121 465.532C490.16 465.627 490.18 465.73 490.18 465.833V469.761C490.18 469.864 490.159 469.967 490.12 470.062C490.08 470.157 490.022 470.244 489.95 470.317C489.877 470.39 489.79 470.448 489.695 470.487C489.599 470.527 489.497 470.547 489.394 470.547Z" fill="#878045"/>
<path d="M489.394 463.476C488.876 463.475 488.363 463.37 487.886 463.166C487.409 462.963 486.977 462.666 486.617 462.293C485.88 461.55 485.467 460.546 485.466 459.499V454.049C485.462 453.011 485.87 452.014 486.601 451.277C487.332 450.541 488.326 450.125 489.364 450.121C489.374 450.121 489.384 450.121 489.394 450.121C489.912 450.115 490.425 450.213 490.904 450.408C491.383 450.604 491.818 450.893 492.184 451.259C492.55 451.625 492.839 452.06 493.035 452.539C493.23 453.018 493.328 453.531 493.322 454.049V459.499C493.327 460.547 492.917 461.554 492.18 462.3C491.444 463.045 490.442 463.468 489.394 463.476Z" fill="#878045"/>
</svg>
