<svg width="759" height="616" viewBox="0 0 759 616" fill="none" xmlns="http://www.w3.org/2000/svg">
<path d="M370.335 233.942C380.828 233.942 389.335 225.436 389.335 214.942C389.335 204.449 380.828 195.942 370.335 195.942C359.842 195.942 351.335 204.449 351.335 214.942C351.335 225.436 359.842 233.942 370.335 233.942Z" fill="#2F2E41"/>
<path d="M380.089 207.024C379.803 206.751 379.423 206.599 379.028 206.599C378.633 206.599 378.253 206.751 377.967 207.024C373.936 210.239 370.315 213.938 367.185 218.037C366.417 216.55 365.649 215.064 364.881 213.577C363.994 211.862 361.404 213.377 362.29 215.092C363.414 217.266 364.538 219.44 365.661 221.614C365.797 221.836 365.987 222.019 366.214 222.147C366.441 222.274 366.696 222.341 366.956 222.341C367.216 222.341 367.472 222.274 367.699 222.147C367.926 222.019 368.116 221.836 368.252 221.614C371.586 216.918 375.572 212.719 380.089 209.145C380.368 208.863 380.524 208.482 380.524 208.085C380.524 207.687 380.368 207.306 380.089 207.024Z" fill="white"/>
<path d="M285.32 268.819L256.668 223.824L289.846 206.055L298.554 240.385L359.909 273.54C362.332 272.668 364.955 272.52 367.46 273.114C369.965 273.707 372.244 275.017 374.017 276.883C375.791 278.749 376.983 281.091 377.449 283.622C377.915 286.154 377.634 288.767 376.64 291.142C375.647 293.517 373.984 295.552 371.854 296.998C369.724 298.444 367.219 299.239 364.645 299.286C362.071 299.334 359.539 298.631 357.358 297.264C355.176 295.897 353.439 293.925 352.359 291.588L285.32 268.819Z" fill="#A0616A"/>
<path d="M235.735 169.856C226.733 183.074 258.725 231.119 258.725 231.119C260.284 227.759 275.182 265.485 277.678 263.256C284.77 256.922 295.872 239.28 302.043 238.493C305.572 238.044 293.858 213.015 293.858 213.015C293.858 213.015 288.504 198.235 281.24 179.356C279.285 173.981 276.002 169.187 271.696 165.422C267.39 161.656 262.202 159.041 256.614 157.821C256.614 157.821 244.738 156.638 235.735 169.856Z" fill="#3F3D56"/>
<path d="M236.175 600.491L249.782 600.49L256.255 548.005L236.172 548.006L236.175 600.491Z" fill="#A0616A"/>
<path d="M232.703 596.048L236.533 596.048L251.487 589.967L259.501 596.047H259.502C264.031 596.047 268.375 597.847 271.577 601.049C274.78 604.252 276.579 608.595 276.58 613.124V613.679L232.704 613.681L232.703 596.048Z" fill="#2F2E41"/>
<path d="M299.391 600.491L312.998 600.49L319.472 548.005L299.389 548.006L299.391 600.491Z" fill="#A0616A"/>
<path d="M295.92 596.048L299.75 596.048L314.703 589.967L322.718 596.047H322.719C327.248 596.047 331.591 597.847 334.794 601.049C337.997 604.252 339.796 608.595 339.796 613.124V613.679L295.921 613.681L295.92 596.048Z" fill="#2F2E41"/>
<path d="M305.281 313.552L216.774 315.764C199.964 324.894 199.709 344.655 205.217 368.117C205.217 368.117 203.357 382.062 207.076 385.78C210.795 389.499 212.654 389.499 210.795 396.006C208.935 402.514 218.759 413.143 217.566 414.336C216.373 415.529 213.584 422.037 213.584 422.037L222.88 475.027C222.88 475.027 229.388 567.063 231.247 568.922C233.106 570.782 234.966 568.922 233.106 573.571C231.247 578.219 229.388 576.36 231.247 578.219C232.894 579.995 234.446 581.857 235.895 583.797H258.372C258.372 583.797 260.066 574.5 260.066 573.571C260.066 572.641 261.926 567.063 261.926 566.133C261.926 565.204 260.282 563.56 260.282 563.56C259.715 561.671 259.331 559.73 259.137 557.767C259.137 555.907 253.559 484.324 253.559 484.324L264.715 391.358L291.675 482.464C291.675 482.464 291.675 562.415 293.534 564.274C295.393 566.133 295.393 565.204 294.464 568.922C293.534 572.641 289.815 571.711 292.604 574.5C295.393 577.289 296.323 572.641 295.393 577.289L294.464 581.938L322.353 582.337C322.353 582.337 326.072 574.5 324.213 571.711C322.353 568.922 322.465 569.684 324.733 565.12C327.002 560.556 327.931 559.626 327.002 558.696C326.072 557.767 326.072 552.822 326.072 552.822L321.424 463.871C321.424 463.871 320.494 369.976 320.494 367.187C320.424 365.752 320.688 364.32 321.266 363.005V359.219L317.705 345.805L305.281 313.552Z" fill="#2F2E41"/>
<path d="M252.113 129.515C267.301 129.515 279.613 117.203 279.613 102.015C279.613 86.8277 267.301 74.5156 252.113 74.5156C236.926 74.5156 224.614 86.8277 224.614 102.015C224.614 117.203 236.926 129.515 252.113 129.515Z" fill="#A0616A"/>
<path d="M265.863 147.69C271.788 151.212 275.332 157.684 277.366 164.269C281.133 176.461 283.4 189.066 284.118 201.806L286.266 239.947L312.879 321.161C289.815 340.677 203.12 325.597 203.12 325.597C203.12 325.597 200.458 324.71 203.12 322.048C205.781 319.387 208.372 321.745 205.71 319.084C203.049 316.422 204.884 319.387 205.771 316.726C206.658 314.064 205.771 315.839 204.884 314.952C203.997 314.064 211.751 306.081 211.751 306.081L204.654 259.463L195.784 165.432C206.429 152.126 227.837 144.282 227.837 144.282L233.369 134.325L261.027 136.537L265.863 147.69Z" fill="#3F3D56"/>
<path d="M274.783 87.405C276.92 88.9991 278.503 91.2235 279.31 93.7648C279.62 89.6117 279.64 85.442 279.369 81.2861C279.045 78.3658 276.989 77.7089 274.608 76.9477C272.458 76.26 270.027 75.4832 269.373 72.6482C260.728 64.2388 245.68 64.6629 235.382 67.5962C229.715 69.2104 226.454 71.2842 226.163 72.4991L226.102 72.7492L225.872 72.8643C221.504 75.0484 220.654 81.9451 220.71 87.3461C220.816 97.522 224.33 109.079 226.309 110.018C226.414 110.068 226.44 110.048 226.486 110.01C229.466 107.629 233.102 110.191 234.7 111.585C235.643 105.26 238.677 99.4339 243.319 95.0365C247.961 90.6391 253.943 87.9241 260.31 87.3251C262.389 87.1242 264.451 86.7783 266.482 86.2901C267.512 86.0236 268.571 85.8846 269.635 85.8763C271.467 85.8485 273.263 86.382 274.783 87.405Z" fill="#2F2E41"/>
<path d="M445.497 335.464L498.397 281.746L512.334 238.783L489.906 229.711C478.795 240.918 467.359 275.226 467.359 275.226L431.253 323.684C430.965 323.791 430.677 323.905 430.394 324.039C428.732 324.823 427.3 326.024 426.237 327.524C425.174 329.024 424.516 330.772 424.327 332.601C424.137 334.429 424.423 336.276 425.155 337.962C425.888 339.648 427.043 341.116 428.509 342.225C429.975 343.334 431.703 344.046 433.524 344.293C435.346 344.539 437.201 344.311 438.908 343.632C440.616 342.952 442.12 341.843 443.274 340.412C444.429 338.982 445.194 337.277 445.497 335.464Z" fill="#FFB8B8"/>
<path d="M483.788 234.626L512.151 242.831L512.257 242.81C522.682 240.786 530.929 223.46 536.012 209.282C537.683 204.605 537.517 199.468 535.547 194.91C533.576 190.351 529.949 186.71 525.397 184.724C522.029 183.281 518.325 182.81 514.703 183.362C511.081 183.914 507.686 185.468 504.902 187.849L490.76 200.026L483.788 234.626Z" fill="#2F2E41"/>
<path d="M459.521 598.895L444.267 598.894L437.011 540.059L459.523 540.06L459.521 598.895Z" fill="#FFB8B8"/>
<path d="M463.412 593.915L459.119 593.914L442.356 587.098L433.372 593.913H433.371C428.294 593.914 423.425 595.931 419.835 599.521C416.244 603.111 414.227 607.98 414.227 613.057V613.679L463.411 613.681L463.412 593.915Z" fill="#2F2E41"/>
<path d="M527.204 598.895L511.95 598.894L504.694 540.059L527.207 540.06L527.204 598.895Z" fill="#FFB8B8"/>
<path d="M531.095 593.915L526.802 593.914L510.039 587.098L501.055 593.913H501.054C495.977 593.914 491.108 595.931 487.518 599.521C483.928 603.111 481.91 607.98 481.91 613.057V613.679L531.094 613.681L531.095 593.915Z" fill="#2F2E41"/>
<path d="M550.463 345.47C550.463 345.47 552.244 366.843 547.791 387.326C543.338 407.809 543.338 465.496 543.338 465.496L533.542 577.908L504.153 575.236L496.138 387.326L467.64 450.557L470.312 459.462L466.753 461.689C466.753 461.689 469.421 479.055 467.64 479.055C465.859 479.055 461.406 481.726 461.406 481.726L464.968 573.455L434.689 572.564L424.002 443.432L435.58 369.515L436.47 355.266L440.478 355.431L442.518 349.477L446.267 339.236L550.463 345.47Z" fill="#2F2E41"/>
<path d="M552.002 349.959L552.161 349.736C560.638 337.868 547.889 309.35 545.966 305.216L554.065 302.588L552.241 287.085L551.377 280.174L557.567 273.984L557.584 273.829L561.147 242.659L566.326 221.957C568.278 214.13 568.111 205.926 565.844 198.185C563.577 190.444 559.291 183.446 553.425 177.909L541.453 166.621L526.903 145.092H503.44L495.395 160.288C487.595 162.091 480.674 166.573 475.839 172.953C471.004 179.333 468.561 187.208 468.934 195.204L470.757 235.06L463.619 284.683L463.615 293.663L455.582 302.59L457.336 311.361L451.223 313.981L448.523 326.578C447.406 328.052 440.032 337.884 440.032 340.571C440.032 340.975 440.33 341.365 440.97 341.798C445.995 345.2 473.769 352.138 486.062 347.219C499.156 341.983 551.207 349.837 551.732 349.917L552.002 349.959Z" fill="#2F2E41"/>
<path d="M512.141 138.142C529.303 138.142 543.215 124.23 543.215 107.068C543.215 89.9057 529.303 75.9932 512.141 75.9932C494.979 75.9932 481.066 89.9057 481.066 107.068C481.066 124.23 494.979 138.142 512.141 138.142Z" fill="#FFB8B8"/>
<path d="M509.164 138.645C513.976 138.596 518.776 138.136 523.51 137.27C528.197 136.19 538.537 128.194 541.355 123.47C543.449 119.961 544.706 114.532 545.392 110.596C546.318 105.387 546.139 100.042 544.868 94.9069C543.597 89.7715 541.261 84.9603 538.012 80.7849C536.76 79.0356 535.058 77.6574 533.087 76.796C532.912 76.733 532.733 76.6777 532.552 76.6312C529.695 75.9577 527.104 74.4455 525.112 72.2888C524.725 71.8521 524.308 71.4439 523.862 71.0673C521.628 69.2782 519.002 68.0434 516.199 67.4637C511.67 66.3762 505.192 67.739 496.945 71.5178C492.802 73.4163 488.204 72.8867 484.659 72.2131C484.461 72.18 484.257 72.1996 484.068 72.2698C483.879 72.3399 483.712 72.4583 483.583 72.6132C482.12 74.0597 480.163 74.8988 478.106 74.9618C476.848 75.0496 475.571 76.8281 474.032 79.1441C473.683 79.6699 473.276 80.2835 472.98 80.6579L472.921 79.9547L472.229 80.7587C471.14 82.0224 470.39 83.5409 470.046 85.1728C469.703 86.8048 469.778 88.4971 470.264 90.0922C470.751 91.6873 471.634 93.1333 472.83 94.2956C474.026 95.4578 475.496 96.2985 477.105 96.7394C478.381 97.0438 479.684 97.2172 480.996 97.2568C481.79 97.3077 482.613 97.3603 483.402 97.4764C485.939 97.928 488.315 99.0295 490.299 100.674C492.283 102.318 493.806 104.448 494.721 106.857C494.937 107.413 495.278 107.913 495.717 108.317C496.157 108.721 496.684 109.018 497.257 109.186C497.829 109.354 498.433 109.388 499.021 109.286C499.61 109.184 500.167 108.948 500.649 108.596C501.451 107.937 502.401 107.482 503.418 107.27C504.434 107.057 505.487 107.094 506.486 107.377C507.355 107.831 508.041 108.57 508.43 109.47C508.9 110.472 509.657 111.311 510.606 111.88C513.841 113.444 514.25 120.731 513.26 126.84C512.306 132.728 510.23 137.023 508.213 137.285C506.66 137.486 506.484 137.602 506.379 137.88L506.284 138.129L506.465 138.355C507.333 138.645 508.254 138.744 509.164 138.645Z" fill="#2F2E41"/>
<path d="M483.383 237.949L468.446 218.917C453.231 223.107 426.235 247.17 426.235 247.17L370.793 271.229C368.943 270.918 367.043 271.1 365.285 271.757C363.528 272.414 361.974 273.522 360.781 274.97C359.587 276.418 358.796 278.155 358.488 280.005C358.179 281.856 358.363 283.756 359.022 285.513C359.681 287.27 360.791 288.822 362.24 290.014C363.69 291.205 365.427 291.994 367.278 292.301C369.13 292.607 371.029 292.42 372.785 291.76C374.541 291.099 376.092 289.987 377.282 288.536L449.909 268.274L483.383 237.949Z" fill="#FFB8B8"/>
<path d="M479.803 242.3L503.371 216.028L504.679 197.412C504.923 193.756 504.139 190.105 502.417 186.872C500.694 183.638 498.102 180.951 494.932 179.113C490.619 176.651 485.532 175.919 480.699 177.065C475.866 178.21 471.649 181.148 468.9 185.284C460.572 197.835 451.614 214.804 456.223 224.371L456.27 224.468L479.803 242.3Z" fill="#2F2E41"/>
<path d="M262.579 341.05L201.325 309.679C196.968 307.447 195.525 301.529 198.108 296.485L238.047 218.501C240.63 213.458 246.276 211.17 250.633 213.401L311.888 244.772C316.245 247.004 317.688 252.923 315.105 257.966L275.166 335.95C272.583 340.994 266.936 343.281 262.579 341.05Z" fill="#E6E6E6"/>
<path d="M252.113 326.628L210.496 305.314C206.416 303.224 205.064 297.681 207.483 292.958L240.664 228.17C243.083 223.446 248.371 221.304 252.452 223.394L302.716 249.137C306.797 251.227 308.149 256.77 305.729 261.493L287.704 296.689C276.928 317.73 270.29 335.937 252.113 326.628Z" fill="white"/>
<path d="M272.69 291.248L235.828 272.369C235.378 272.048 235.057 271.576 234.926 271.038C234.795 270.5 234.862 269.933 235.114 269.441C235.366 268.948 235.787 268.563 236.3 268.355C236.813 268.147 237.384 268.131 237.908 268.309L274.769 287.187C275.22 287.508 275.54 287.981 275.671 288.519C275.802 289.056 275.736 289.623 275.483 290.116C275.231 290.608 274.81 290.994 274.297 291.202C273.784 291.409 273.214 291.426 272.69 291.248Z" fill="#2F2E41"/>
<path d="M240.132 284.7L231.72 280.392C231.269 280.071 230.949 279.598 230.818 279.06C230.687 278.523 230.753 277.956 231.006 277.463C231.258 276.971 231.679 276.585 232.192 276.377C232.705 276.169 233.275 276.153 233.799 276.331L242.211 280.639C242.662 280.96 242.982 281.433 243.113 281.971C243.245 282.508 243.178 283.075 242.926 283.568C242.673 284.06 242.252 284.446 241.739 284.654C241.226 284.862 240.656 284.878 240.132 284.7Z" fill="#2F2E41"/>
<path d="M250.922 300.353L227.611 288.414C227.16 288.093 226.84 287.62 226.709 287.083C226.578 286.545 226.645 285.978 226.897 285.486C227.149 284.993 227.57 284.608 228.083 284.4C228.596 284.192 229.167 284.175 229.691 284.354L253.002 296.292C253.452 296.613 253.773 297.086 253.904 297.624C254.035 298.161 253.968 298.728 253.716 299.221C253.464 299.713 253.043 300.099 252.53 300.307C252.017 300.515 251.446 300.531 250.922 300.353V300.353Z" fill="#2F2E41"/>
<path d="M287.277 262.766L250.415 243.887C249.965 243.566 249.644 243.094 249.513 242.556C249.382 242.018 249.449 241.451 249.701 240.959C249.953 240.466 250.374 240.081 250.887 239.873C251.4 239.665 251.971 239.649 252.495 239.827L289.356 258.705C289.807 259.027 290.127 259.499 290.258 260.037C290.389 260.574 290.323 261.141 290.07 261.634C289.818 262.126 289.397 262.512 288.884 262.72C288.371 262.928 287.801 262.944 287.277 262.766Z" fill="#2F2E41"/>
<path d="M254.719 256.218L246.307 251.91C245.856 251.589 245.536 251.116 245.405 250.578C245.274 250.041 245.34 249.474 245.593 248.981C245.845 248.489 246.266 248.103 246.779 247.895C247.292 247.687 247.862 247.671 248.386 247.849L256.799 252.157C257.249 252.479 257.569 252.951 257.7 253.489C257.832 254.026 257.765 254.593 257.513 255.086C257.26 255.579 256.839 255.964 256.326 256.172C255.813 256.38 255.243 256.396 254.719 256.218Z" fill="#2F2E41"/>
<path d="M265.509 271.871L242.198 259.932C241.747 259.611 241.427 259.138 241.296 258.601C241.165 258.063 241.232 257.496 241.484 257.004C241.736 256.511 242.157 256.126 242.67 255.918C243.183 255.71 243.754 255.694 244.278 255.872L267.589 267.81C268.04 268.131 268.36 268.604 268.491 269.142C268.622 269.679 268.555 270.246 268.303 270.739C268.051 271.231 267.63 271.617 267.117 271.825C266.604 272.033 266.033 272.049 265.509 271.871L265.509 271.871Z" fill="#2F2E41"/>
<path d="M211.82 273.158L197.982 221.64L234.962 214.64L232.973 250.001L281.561 300.031C284.133 299.926 286.68 300.571 288.892 301.889C291.104 303.206 292.884 305.139 294.017 307.451C295.149 309.763 295.584 312.354 295.269 314.909C294.954 317.464 293.902 319.873 292.242 321.84C290.582 323.808 288.386 325.25 285.92 325.991C283.455 326.732 280.827 326.739 278.357 326.012C275.887 325.286 273.683 323.856 272.011 321.898C270.34 319.939 269.275 317.537 268.945 314.984L211.82 273.158Z" fill="#A0616A"/>
<path d="M194.198 163.879C181.646 173.788 197.757 229.216 197.757 229.216C200.251 226.479 203.15 266.936 206.198 265.559C214.864 261.643 230.746 248.142 236.869 249.243C240.37 249.872 236.701 222.482 236.701 222.482C236.701 222.482 236.027 206.778 234.759 186.589C234.506 180.874 232.812 175.317 229.833 170.434C226.855 165.55 222.69 161.5 217.725 158.659C217.725 158.659 206.75 153.97 194.198 163.879Z" fill="#3F3D56"/>
<path d="M403.054 387.504L369.628 371.72C368.913 371.384 368.283 370.891 367.786 370.277C367.289 369.664 366.938 368.945 366.758 368.176C366.576 367.424 366.568 366.641 366.733 365.885C366.898 365.129 367.232 364.42 367.71 363.811C377.392 351.437 384.041 336.965 387.123 321.558C387.355 320.378 387.99 319.315 388.919 318.551C389.848 317.787 391.012 317.369 392.215 317.367C409.263 317.425 422.004 323.65 430.083 335.867C430.509 336.502 430.791 337.223 430.91 337.979C431.029 338.734 430.982 339.507 430.771 340.242C426.093 356.366 418.975 371.679 409.663 385.649C408.972 386.705 407.922 387.475 406.706 387.816C405.491 388.157 404.194 388.046 403.054 387.504Z" fill="#E6E6E6"/>
<path d="M412.887 365.366L387.329 353.297C386.693 352.997 386.203 352.457 385.965 351.795C385.728 351.133 385.763 350.404 386.064 349.768C386.364 349.132 386.904 348.641 387.566 348.404C388.228 348.167 388.957 348.202 389.593 348.502L415.151 360.571C415.466 360.72 415.749 360.929 415.983 361.187C416.216 361.445 416.397 361.746 416.515 362.074C416.632 362.402 416.684 362.749 416.667 363.097C416.65 363.445 416.565 363.786 416.417 364.101C416.268 364.416 416.059 364.698 415.801 364.932C415.543 365.166 415.242 365.347 414.914 365.464C414.586 365.582 414.238 365.634 413.891 365.617C413.543 365.6 413.202 365.515 412.887 365.366H412.887Z" fill="white"/>
<path d="M416.857 356.958L391.299 344.889C390.663 344.589 390.173 344.048 389.936 343.386C389.698 342.724 389.734 341.995 390.034 341.36C390.334 340.724 390.875 340.233 391.537 339.996C392.199 339.759 392.928 339.794 393.563 340.094L419.122 352.163C419.757 352.463 420.248 353.004 420.485 353.666C420.723 354.328 420.687 355.057 420.387 355.693C420.087 356.328 419.546 356.819 418.884 357.056C418.222 357.294 417.493 357.258 416.857 356.958V356.958Z" fill="white"/>
</svg>
